<?xml version="1.0" standalone="no"?>
<!DOCTYPE svg PUBLIC "-//W3C//DTD SVG 20010904//EN"
 "http://www.w3.org/TR/2001/REC-SVG-20010904/DTD/svg10.dtd">
<svg version="1.0" xmlns="http://www.w3.org/2000/svg"
 width="275.000000pt" height="275.000000pt" viewBox="0 0 275.000000 275.000000"
 preserveAspectRatio="xMidYMid meet">

<g transform="translate(0.000000,275.000000) scale(0.100000,-0.100000)"
fill="#000000" stroke="none">
<path d="M1238 2569 c-54 -16 -133 -47 -177 -69 -43 -22 -90 -40 -105 -40 -16
0 -25 -4 -21 -10 10 -16 68 -43 94 -44 13 -1 26 -7 29 -15 4 -11 -4 -13 -37
-8 l-42 5 17 -25 17 -26 -39 23 c-22 13 -53 36 -69 52 -17 15 -34 28 -37 28
-3 0 -6 -20 -6 -44 -1 -24 -13 -91 -28 -148 -27 -105 -44 -288 -28 -288 5 0
16 15 23 33 l14 32 7 -53 c10 -67 17 -74 25 -28 8 41 40 86 61 86 8 0 17 -13
21 -30 6 -34 29 -40 38 -10 5 16 12 19 28 14 12 -4 24 -11 26 -17 2 -5 12 -18
22 -28 14 -14 17 -27 13 -46 -5 -20 -2 -30 17 -44 l24 -19 -32 0 c-27 0 -34
-5 -39 -26 -5 -19 -9 -23 -16 -12 -7 10 -13 8 -29 -11 -21 -26 -21 -58 0 -53
7 1 34 5 59 8 l47 5 -35 -20 c-20 -11 -46 -18 -60 -15 -14 2 -19 1 -12 -2 23
-11 12 -24 -20 -24 -31 0 -31 -1 -15 -17 16 -17 22 -16 117 9 105 27 121 23
43 -12 -25 -11 -44 -23 -40 -26 3 -3 14 -1 25 5 12 6 35 11 52 11 30 0 30 0
14 -25 -18 -27 -12 -47 8 -27 7 7 22 12 34 12 13 0 26 5 29 10 12 20 26 10 15
-10 -6 -11 -18 -20 -28 -20 -9 0 -28 -7 -42 -15 -80 -47 -108 -56 -135 -43
-25 11 -29 10 -46 -12 -34 -45 -40 -50 -54 -50 -23 0 -18 13 15 45 46 44 36
51 -15 9 -30 -24 -45 -44 -45 -60 0 -13 -8 -28 -17 -33 -17 -10 -16 -11 2 -9
11 1 29 0 40 -1 17 -1 18 -3 5 -11 -10 -7 -11 -10 -2 -10 8 0 5 -11 -10 -32
-13 -18 -24 -35 -25 -37 -1 -2 -9 2 -18 9 -12 10 -15 10 -15 -3 0 -8 -3 -24
-6 -34 -3 -11 -2 -14 3 -7 4 6 17 14 28 18 11 4 -5 -19 -37 -51 -31 -32 -58
-67 -61 -78 -3 -11 -5 -4 -6 17 0 20 5 41 12 45 21 13 48 63 41 75 -9 14 -34
-19 -34 -45 0 -17 -2 -18 -16 -6 -14 11 -16 27 -11 92 4 49 3 76 -3 72 -6 -3
-10 -13 -10 -21 0 -32 -62 -172 -85 -194 -26 -24 -36 -51 -11 -31 19 16 49 3
41 -18 -25 -61 -27 -143 -3 -157 5 -3 27 13 49 35 l39 42 1 -33 c4 -103 8
-131 19 -141 9 -9 11 -1 5 39 -5 41 -3 52 8 57 10 4 19 -5 28 -26 10 -23 10
-32 1 -35 -17 -5 -15 -37 3 -52 13 -11 15 -6 15 36 0 27 5 56 10 64 6 10 10
11 10 3 0 -7 7 -13 15 -13 8 0 15 -7 15 -16 0 -11 -6 -14 -21 -9 -19 6 -20 4
-14 -27 4 -18 12 -36 17 -39 10 -6 -10 -59 -23 -59 -4 0 -12 6 -16 13 -4 7
-20 18 -34 24 -48 21 -66 -23 -29 -69 l20 -26 -28 -5 c-21 -4 -32 -17 -49 -55
-27 -59 -28 -62 -8 -62 8 0 15 -5 15 -11 0 -6 -6 -9 -14 -6 -20 8 -47 -25 -36
-43 13 -21 12 -30 -3 -30 -24 0 -45 -34 -55 -90 -8 -40 -7 -59 1 -69 9 -12 9
-13 -1 -7 -15 9 -30 -25 -47 -109 -8 -36 -13 -49 -14 -32 0 15 -6 27 -11 27
-12 0 -13 -3 -30 -90 -23 -115 -23 -117 -11 -100 9 13 11 13 11 -3 0 -40 -25
-97 -43 -97 -10 0 -15 -5 -12 -10 3 -6 44 -10 90 -10 l83 0 7 40 c4 22 10 40
15 40 4 0 4 -18 0 -40 l-7 -40 1028 0 1029 0 0 53 c0 52 -2 56 -82 151 -46 53
-104 121 -129 151 -54 65 -181 274 -239 397 -47 97 -47 118 3 149 18 10 25 19
17 19 -12 1 -12 3 2 14 10 7 26 34 38 60 l20 47 -29 -20 c-34 -25 -81 -28 -81
-6 0 12 -5 13 -27 4 -33 -12 -55 -5 -47 16 4 11 0 15 -16 15 -19 0 -21 4 -15
27 3 16 13 35 21 44 13 14 13 18 0 28 -11 9 -12 18 -3 40 8 23 7 36 -7 66 -27
56 -26 98 2 110 14 6 20 15 16 25 -14 31 -10 55 9 52 21 -4 22 -8 -8 68 -31
80 -32 95 -5 80 26 -14 26 -11 -11 72 -46 106 -44 222 3 174 10 -9 20 -11 29
-5 10 6 10 9 2 9 -7 0 -25 13 -39 30 -15 16 -30 27 -34 25 -5 -3 -10 2 -14 10
-3 8 -14 15 -25 15 -12 0 -20 9 -23 25 -4 21 -2 23 13 15 10 -6 29 -10 43 -10
14 0 27 -4 30 -9 4 -5 -4 -7 -16 -4 -16 4 -5 -11 37 -50 56 -52 85 -72 69 -46
-3 6 0 15 7 20 11 6 8 9 -8 9 -12 0 -25 5 -28 10 -3 6 -1 10 5 10 15 0 -41 69
-62 76 -14 4 -16 9 -8 24 12 23 13 33 2 26 -5 -3 -6 8 -4 25 3 22 0 29 -13 29
-12 0 -15 6 -11 20 3 11 9 29 12 41 5 16 8 18 20 8 19 -16 29 -5 11 12 -8 8
-16 21 -19 29 -5 12 -7 11 -14 -5 -4 -11 -13 -24 -21 -28 -7 -4 -13 -19 -13
-32 0 -13 -10 -31 -22 -39 -48 -34 -50 -12 -7 52 17 25 31 55 32 66 2 46 -4
76 -14 76 -7 0 -9 -10 -5 -24 7 -27 -2 -59 -13 -51 -4 2 -7 -4 -7 -13 1 -9 -3
-18 -9 -19 -5 -1 -14 -23 -20 -48 -10 -45 -30 -63 -30 -27 -1 9 -4 23 -9 30
-4 7 -5 16 -2 19 7 7 -13 33 -25 33 -5 0 -6 -12 -3 -26 5 -21 4 -25 -6 -19
-10 6 -12 3 -8 -13 4 -14 0 -23 -11 -27 -13 -5 -10 -10 14 -23 25 -13 27 -17
12 -20 -18 -4 -18 -5 -1 -23 17 -19 17 -19 -27 0 -24 12 -64 21 -88 21 -39 0
-42 -2 -30 -17 11 -13 11 -17 2 -20 -22 -8 -14 -48 12 -71 18 -16 39 -22 78
-23 51 -1 50 -2 -30 -15 -45 -8 -125 -30 -178 -49 -110 -40 -116 -41 -89 -19
18 14 18 15 -6 8 -14 -3 -32 -12 -40 -19 -8 -7 -34 -16 -58 -20 -38 -6 -41 -5
-35 12 11 31 14 34 27 23 16 -13 72 -2 87 16 6 8 18 14 25 14 8 0 14 3 14 6 0
10 -44 43 -59 44 -7 0 -11 6 -8 13 23 61 20 62 -28 17 -43 -41 -46 -42 -32
-15 33 65 129 134 214 154 30 7 33 9 12 10 -20 1 -30 10 -44 41 -10 21 -39 57
-66 79 -30 26 -52 55 -59 78 -7 21 -25 52 -42 69 -16 17 -38 55 -49 84 -35 92
-92 162 -131 159 -7 0 -57 -14 -110 -30z m-98 -94 c0 -8 -9 -15 -20 -15 -23 0
-25 -8 -5 -34 8 -10 21 -16 29 -13 10 4 20 -2 27 -16 9 -18 9 -20 -2 -9 -7 6
-19 12 -27 12 -15 0 -13 -24 3 -64 7 -16 6 -17 -13 -7 -13 7 -22 21 -22 35 0
13 -7 37 -15 54 -15 28 -14 32 2 51 20 25 43 27 43 6z m129 -89 c-14 -12 -24
-26 -22 -32 2 -5 -6 -10 -17 -10 -25 0 -26 23 -1 31 10 3 26 14 36 25 10 11
21 17 24 14 3 -3 -6 -16 -20 -28z m-31 -195 c7 -21 12 -49 11 -62 0 -15 -6 -4
-14 26 -8 27 -19 51 -25 53 -15 5 -12 22 3 22 8 0 19 -17 25 -39z m832 -162
c0 -5 -6 -9 -14 -9 -8 0 -16 -6 -19 -12 -2 -7 -7 -10 -11 -6 -11 10 16 47 31
41 7 -3 13 -9 13 -14z m-627 -35 c-10 -19 -19 -31 -21 -25 -3 9 26 61 34 61 2
0 -4 -16 -13 -36z m682 -1 c-15 -10 -20 -10 -27 -1 -4 8 -1 15 10 19 26 10 37
-2 17 -18z m30 -131 c-3 -3 -11 0 -18 7 -9 10 -8 11 6 5 10 -3 15 -9 12 -12z
m-701 -72 c-15 -22 -29 -38 -32 -35 -3 3 1 13 9 22 8 10 21 31 29 46 8 16 16
24 18 19 2 -6 -9 -29 -24 -52z m467 36 c11 -14 29 -27 42 -29 12 -2 3 -5 -19
-6 -23 0 -57 -8 -75 -16 l-34 -14 49 -1 c37 0 47 -3 43 -14 -3 -8 5 -19 19
-26 13 -8 24 -19 24 -27 0 -16 27 -18 32 -2 5 14 48 -6 48 -21 0 -12 -14 -13
-24 -3 -10 10 -68 5 -155 -14 -82 -17 -321 -15 -355 4 -17 9 -15 11 13 21 31
11 35 18 32 57 -1 18 0 18 19 -5 13 -15 20 -33 17 -47 -3 -17 0 -23 14 -23 11
0 19 5 19 12 0 9 3 9 12 0 7 -7 18 -12 26 -12 12 0 12 3 2 15 -7 9 -10 19 -6
22 4 4 11 1 16 -7 7 -12 13 -11 32 7 13 12 42 29 66 38 24 10 41 19 39 22 -2
2 -17 -2 -33 -8 -49 -19 -95 -28 -87 -17 3 6 -5 19 -18 28 -20 16 -21 20 -9
35 29 35 85 51 184 54 40 1 51 -3 67 -23z m-555 -94 c-17 -16 -18 -16 -5 5 7
12 15 20 18 17 3 -2 -3 -12 -13 -22z m36 -4 c-7 -7 -12 -8 -12 -2 0 6 3 14 7
17 3 4 9 5 12 2 2 -3 -1 -11 -7 -17z m-145 -35 c-17 -18 -22 -8 -11 22 5 12
10 13 17 6 8 -8 6 -16 -6 -28z m114 -4 c-31 -25 -24 -31 23 -18 21 6 40 8 43
5 9 -9 -77 -27 -92 -19 -16 9 -9 22 20 40 30 18 33 15 6 -8z m754 -20 c11 -17
-1 -21 -15 -4 -8 9 -8 15 -2 15 6 0 14 -5 17 -11z m-309 -104 c-21 -16 -174
-20 -209 -6 -10 4 25 5 78 4 53 -2 103 1 113 6 26 16 39 12 18 -4z m-596 0 c0
-8 -85 -62 -110 -70 -18 -5 -14 0 16 21 68 49 94 62 94 49z m35 -55 c-3 -5
-10 -10 -16 -10 -5 0 -9 5 -9 10 0 6 7 10 16 10 8 0 12 -4 9 -10z m735 -20 c0
-5 -7 -7 -15 -4 -8 4 -15 8 -15 10 0 2 7 4 15 4 8 0 15 -4 15 -10z m190 -33
c0 -5 -4 -5 -10 -2 -5 3 -10 14 -10 23 0 15 2 15 10 2 5 -8 10 -19 10 -23z
m-875 -9 c-8 -40 -29 -58 -66 -58 -15 0 -34 -3 -42 -6 -10 -3 -20 3 -27 15
-14 26 6 51 42 51 13 0 34 7 48 14 42 24 52 20 45 -16z m-288 -25 c-9 -9 -20
-14 -24 -10 -3 4 2 14 13 21 25 19 33 10 11 -11z m171 -138 c12 -9 39 -22 59
-30 l38 -14 -37 2 c-21 1 -38 5 -38 10 0 4 -8 7 -18 7 -19 0 -42 18 -42 32 0
12 13 10 38 -7z m920 -199 c5 -16 -125 122 -132 141 -4 9 24 -17 61 -57 38
-40 69 -78 71 -84z m-1288 68 c0 -8 -4 -14 -10 -14 -5 0 -10 9 -10 21 0 11 5
17 10 14 6 -3 10 -13 10 -21z m110 17 c0 -5 -7 -11 -15 -15 -15 -5 -20 5 -8
17 9 10 23 9 23 -2z m1079 -29 c6 -19 6 -32 0 -34 -17 -6 -23 -77 -9 -103 11
-20 11 -27 0 -40 -15 -18 -22 -75 -9 -75 4 0 11 5 14 10 3 6 11 10 16 10 6 0
2 -12 -9 -27 -10 -16 -27 -53 -37 -83 -11 -30 -25 -62 -33 -70 -12 -13 -13
-10 -7 20 4 23 3 30 -3 21 -7 -9 -12 5 -17 48 -7 63 -34 111 -61 111 -8 0 -12
5 -9 10 3 6 0 10 -7 11 -7 0 -3 5 10 11 34 17 27 25 -28 32 -36 5 -60 15 -83
36 l-32 30 49 -26 48 -27 56 18 c69 21 118 67 127 119 8 42 12 42 24 -2z
m-651 -4 c4 -21 -34 -33 -53 -18 -21 17 -19 28 8 33 32 6 42 3 45 -15z m-449
-79 c-31 -24 -37 -4 -13 43 l17 33 10 -29 c8 -25 6 -31 -14 -47z m1258 -105
c11 -28 -11 -34 -36 -8 l-23 24 26 0 c15 0 29 -7 33 -16z m-318 -78 c10 -12 8
-13 -8 -9 -12 3 -18 9 -15 14 7 12 10 11 23 -5z m-759 -26 c0 -5 -5 -10 -11
-10 -5 0 -7 5 -4 10 3 6 8 10 11 10 2 0 4 -4 4 -10z m680 -5 c0 -9 -9 -15 -21
-15 -18 0 -19 2 -9 15 7 8 16 15 21 15 5 0 9 -7 9 -15z m300 -5 c0 -5 -7 -10
-16 -10 -8 0 -12 5 -9 10 3 6 10 10 16 10 5 0 9 -4 9 -10z m-170 -100 c0 -32
-4 -62 -10 -65 -6 -4 -10 20 -10 65 0 45 4 69 10 65 6 -3 10 -33 10 -65z
m-995 -27 c-3 -23 0 -33 10 -33 18 0 28 17 13 22 -7 3 -8 7 -2 11 5 3 16 2 24
-3 12 -7 12 -12 -3 -28 -9 -10 -17 -24 -17 -32 0 -20 -32 -39 -67 -40 -18 0
-33 -4 -33 -10 0 -5 16 -10 35 -10 19 0 35 -3 35 -7 0 -16 -56 -40 -75 -33
-33 12 -44 1 -40 -41 2 -22 0 -37 -5 -34 -5 3 -14 -13 -20 -36 -16 -60 -31
-89 -46 -89 -10 0 -10 8 2 37 9 20 14 46 11 58 -2 14 3 26 15 34 19 12 25 51
7 51 -16 0 22 58 43 63 10 3 18 14 18 25 0 11 6 25 14 31 7 6 16 33 18 60 3
28 12 56 24 68 19 19 19 19 31 -6 6 -14 10 -41 8 -58z m1145 52 c0 -8 -7 -15
-15 -15 -8 0 -15 7 -15 15 0 8 7 15 15 15 8 0 15 -7 15 -15z m-185 -75 c11
-17 -5 -32 -21 -19 -8 6 -14 15 -14 20 0 12 27 11 35 -1z m-335 -74 c0 -3 -15
-14 -32 -26 l-33 -22 28 26 c27 25 37 31 37 22z m-520 -14 c0 -13 -12 -22 -22
-16 -10 6 -1 24 13 24 5 0 9 -4 9 -8z m980 -46 c0 -3 -4 -8 -10 -11 -5 -3 -10
-1 -10 4 0 6 5 11 10 11 6 0 10 -2 10 -4z m-1120 -56 c0 -5 -4 -10 -10 -10 -5
0 -10 5 -10 10 0 6 5 10 10 10 6 0 10 -4 10 -10z m1117 -26 c-3 -3 -12 -4 -19
-1 -8 3 -5 6 6 6 11 1 17 -2 13 -5z m-1193 -46 c-9 -14 -23 2 -17 18 4 12 8
13 14 3 4 -7 5 -17 3 -21z m1081 -8 c-3 -5 -21 -10 -38 -9 -27 0 -29 2 -12 9
28 12 57 12 50 0z m-15 -40 c0 -5 -4 -10 -10 -10 -5 0 -10 5 -10 10 0 6 5 10
10 10 6 0 10 -4 10 -10z m-26 -45 c4 -11 13 -14 32 -9 26 7 26 6 8 -15 -22
-26 -40 -27 -48 -3 -3 9 -9 23 -12 30 -3 6 -1 12 4 12 5 0 12 -7 16 -15z m-24
-84 c11 -22 28 -41 37 -43 15 -3 14 -5 -4 -10 -15 -4 -23 -2 -23 7 0 7 -7 16
-16 19 -8 3 -12 11 -9 17 4 5 -1 19 -11 30 -9 10 -12 19 -6 19 6 0 21 -18 32
-39z m-52 -1 c7 -11 9 -20 4 -20 -4 0 -13 9 -20 20 -7 11 -9 20 -4 20 4 0 13
-9 20 -20z m135 -5 c18 -24 17 -25 -3 -25 -12 0 -18 4 -15 10 4 6 1 17 -5 25
-7 8 -9 15 -4 15 5 0 17 -12 27 -25z"/>
<path d="M858 633 c7 -3 16 -2 19 1 4 3 -2 6 -13 5 -11 0 -14 -3 -6 -6z"/>
<path d="M2046 2255 c-11 -8 -15 -15 -9 -15 6 0 16 7 23 15 16 19 11 19 -14 0z"/>
<path d="M1885 2250 c-3 -5 3 -10 14 -10 12 0 21 5 21 10 0 6 -6 10 -14 10 -8
0 -18 -4 -21 -10z"/>
<path d="M1998 2233 c7 -3 16 -2 19 1 4 3 -2 6 -13 5 -11 0 -14 -3 -6 -6z"/>
<path d="M1955 2209 c-10 -15 3 -25 16 -12 7 7 7 13 1 17 -6 3 -14 1 -17 -5z"/>
<path d="M2224 2142 l-21 -18 24 -17 23 -18 0 36 c0 40 1 40 -26 17z"/>
<path d="M2170 2085 c0 -11 6 -14 25 -9 14 3 25 2 25 -4 0 -5 8 -13 18 -16 14
-6 14 -4 -3 12 -29 28 -65 38 -65 17z"/>
<path d="M2280 1848 c0 -30 39 -93 50 -82 4 5 11 19 15 32 5 16 2 22 -10 22
-8 0 -21 11 -27 25 -14 31 -28 32 -28 3z"/>
<path d="M2312 1665 c0 -16 2 -22 5 -12 2 9 2 23 0 30 -3 6 -5 -1 -5 -18z"/>
<path d="M1096 1625 c-39 -36 -32 -50 9 -18 34 27 44 43 26 43 -4 0 -20 -11
-35 -25z"/>
<path d="M725 1395 c-21 -17 -25 -24 -14 -25 16 0 56 37 48 45 -3 2 -18 -7
-34 -20z"/>
<path d="M2738 408 c-2 -7 -1 -49 2 -93 l7 -80 1 93 c2 87 -1 108 -10 80z"/>
</g>
</svg>
